<svg width="62" height="42" viewBox="0 0 62 42" fill="none" xmlns="http://www.w3.org/2000/svg">
<path d="M10.4753 41.296C8.36331 41.296 6.81131 40.8 5.81931 39.808C4.82731 38.848 4.33131 37.072 4.33131 34.48C4.33131 33.328 4.36331 32.336 4.42731 31.504C4.52331 30.64 4.60331 29.808 4.66731 29.008C4.76331 28.176 4.81131 27.264 4.81131 26.272C4.81131 25.44 4.50731 24.656 3.89931 23.92C3.32331 23.152 2.25131 22.752 0.683313 22.72V18.592C2.25131 18.528 3.32331 18.128 3.89931 17.392C4.50731 16.656 4.81131 15.872 4.81131 15.04C4.81131 14.016 4.76331 13.104 4.66731 12.304C4.60331 11.504 4.52331 10.672 4.42731 9.808C4.36331 8.944 4.33131 7.952 4.33131 6.832C4.33131 4.24 4.82731 2.464 5.81931 1.504C6.81131 0.511999 8.36331 0.0159998 10.4753 0.0159998H13.4993V3.76H12.5873C11.5953 3.76 10.9233 4 10.5713 4.48C10.2193 4.928 10.0433 5.808 10.0433 7.12C10.0433 8.4 10.0753 9.664 10.1393 10.912C10.2033 12.128 10.2353 13.472 10.2353 14.944C10.2353 16.768 9.94731 18.096 9.37131 18.928C8.79531 19.728 7.89931 20.272 6.68331 20.56V20.752C7.89931 21.04 8.79531 21.6 9.37131 22.432C9.94731 23.232 10.2353 24.544 10.2353 26.368C10.2353 27.84 10.2033 29.184 10.1393 30.4C10.0753 31.616 10.0433 32.88 10.0433 34.192C10.0433 35.504 10.2193 36.384 10.5713 36.832C10.9233 37.312 11.5953 37.552 12.5873 37.552H13.4993V41.296H10.4753ZM33.2153 34.576C30.3673 34.576 27.7753 33.968 25.4393 32.752C23.1353 31.536 21.2953 29.744 19.9193 27.376C18.5753 24.976 17.9033 22.032 17.9033 18.544C17.9033 15.088 18.5913 12.144 19.9673 9.712C21.3753 7.248 23.2313 5.376 25.5353 4.096C27.8393 2.784 30.3833 2.128 33.1673 2.128C35.4393 2.128 37.3913 2.544 39.0233 3.376C40.6553 4.208 41.9833 5.152 43.0073 6.208L39.3113 10.72C38.5113 10.016 37.6633 9.424 36.7673 8.944C35.8713 8.464 34.7513 8.224 33.4073 8.224C30.9753 8.224 28.9913 9.12 27.4553 10.912C25.9193 12.704 25.1513 15.168 25.1513 18.304C25.1513 21.504 25.8873 24 27.3593 25.792C28.8313 27.584 31.0233 28.48 33.9353 28.48C34.5753 28.48 35.1993 28.4 35.8073 28.24C36.4153 28.08 36.9113 27.84 37.2953 27.52V22.144H32.1113V16.384H43.5353V30.784C42.4473 31.84 40.9913 32.736 39.1673 33.472C37.3753 34.208 35.3913 34.576 33.2153 34.576ZM48.5127 41.296V37.552H49.4247C50.4487 37.552 51.1207 37.312 51.4407 36.832C51.7927 36.384 51.9687 35.504 51.9687 34.192C51.9687 32.88 51.9367 31.616 51.8727 30.4C51.8087 29.184 51.7767 27.84 51.7767 26.368C51.7767 24.544 52.0647 23.232 52.6407 22.432C53.2487 21.6 54.1447 21.04 55.3287 20.752V20.56C54.1447 20.272 53.2487 19.728 52.6407 18.928C52.0647 18.096 51.7767 16.768 51.7767 14.944C51.7767 13.472 51.8087 12.128 51.8727 10.912C51.9367 9.664 51.9687 8.4 51.9687 7.12C51.9687 5.808 51.7927 4.928 51.4407 4.48C51.1207 4 50.4487 3.76 49.4247 3.76H48.5127V0.0159998H51.5367C53.6487 0.0159998 55.2007 0.511999 56.1927 1.504C57.1847 2.464 57.6807 4.24 57.6807 6.832C57.6807 7.952 57.6327 8.944 57.5367 9.808C57.4727 10.672 57.3927 11.504 57.2967 12.304C57.2327 13.104 57.2007 14.016 57.2007 15.04C57.2007 15.872 57.4887 16.656 58.0647 17.392C58.6727 18.128 59.7607 18.528 61.3287 18.592V22.72C59.7607 22.752 58.6727 23.152 58.0647 23.92C57.4887 24.656 57.2007 25.44 57.2007 26.272C57.2007 27.264 57.2327 28.176 57.2967 29.008C57.3927 29.808 57.4727 30.64 57.5367 31.504C57.6327 32.336 57.6807 33.328 57.6807 34.48C57.6807 37.072 57.1847 38.848 56.1927 39.808C55.2007 40.8 53.6487 41.296 51.5367 41.296H48.5127Z" fill="#0D80BF"/>
</svg>
