<svg width="264" height="46" viewBox="0 0 264 46" fill="none" xmlns="http://www.w3.org/2000/svg">
<path d="M21.2631 28.712L0.671063 20.648V17.48L21.2631 9.416V12.824L11.1351 16.568L4.70306 18.968V19.16L11.1351 21.56L21.2631 25.304V28.712ZM34.7064 45.752C31.8584 45.752 29.5384 45.208 27.7464 44.12C25.9544 43.032 25.0584 41.48 25.0584 39.464C25.0584 38.472 25.3624 37.512 25.9704 36.584C26.5784 35.688 27.4104 34.888 28.4664 34.184V33.992C27.8904 33.64 27.3944 33.144 26.9784 32.504C26.5944 31.864 26.4024 31.096 26.4024 30.2C26.4024 29.208 26.6744 28.344 27.2184 27.608C27.7624 26.872 28.3384 26.296 28.9464 25.88V25.688C28.1784 25.048 27.4744 24.184 26.8344 23.096C26.2264 22.008 25.9224 20.776 25.9224 19.4C25.9224 17.704 26.3224 16.232 27.1224 14.984C27.9224 13.736 28.9944 12.776 30.3384 12.104C31.6824 11.432 33.1384 11.096 34.7064 11.096C35.3464 11.096 35.9544 11.16 36.5304 11.288C37.1064 11.384 37.6024 11.512 38.0184 11.672H46.1304V14.696H41.3304C41.8744 15.208 42.3224 15.896 42.6744 16.76C43.0584 17.592 43.2504 18.504 43.2504 19.496C43.2504 21.16 42.8664 22.6 42.0984 23.816C41.3304 25.032 40.3064 25.976 39.0264 26.648C37.7464 27.288 36.3064 27.608 34.7064 27.608C33.4584 27.608 32.2904 27.336 31.2024 26.792C30.7864 27.144 30.4344 27.544 30.1464 27.992C29.8584 28.408 29.7144 28.936 29.7144 29.576C29.7144 30.312 30.0024 30.92 30.5784 31.4C31.1864 31.88 32.2744 32.12 33.8424 32.12H38.3544C41.0744 32.12 43.1064 32.568 44.4504 33.464C45.8264 34.328 46.5144 35.736 46.5144 37.688C46.5144 39.128 46.0344 40.456 45.0744 41.672C44.1144 42.888 42.7544 43.864 40.9944 44.6C39.2344 45.368 37.1384 45.752 34.7064 45.752ZM34.7064 24.968C36.0504 24.968 37.2024 24.472 38.1624 23.48C39.1544 22.456 39.6504 21.096 39.6504 19.4C39.6504 17.704 39.1704 16.376 38.2104 15.416C37.2504 14.456 36.0824 13.976 34.7064 13.976C33.3304 13.976 32.1624 14.456 31.2024 15.416C30.2424 16.376 29.7624 17.704 29.7624 19.4C29.7624 21.096 30.2424 22.456 31.2024 23.48C32.1944 24.472 33.3624 24.968 34.7064 24.968ZM35.2824 43.016C37.5224 43.016 39.3144 42.52 40.6584 41.528C42.0024 40.568 42.6744 39.48 42.6744 38.264C42.6744 37.176 42.2584 36.424 41.4264 36.008C40.6264 35.592 39.4744 35.384 37.9704 35.384H33.9384C33.4904 35.384 32.9944 35.352 32.4504 35.288C31.9384 35.224 31.4264 35.128 30.9144 35C30.0824 35.608 29.4744 36.248 29.0904 36.92C28.7064 37.592 28.5144 38.264 28.5144 38.936C28.5144 40.184 29.1064 41.176 30.2904 41.912C31.5064 42.648 33.1704 43.016 35.2824 43.016ZM58.3337 35.576C55.4217 35.576 53.0857 34.52 51.3257 32.408C49.5657 30.264 48.6857 27.256 48.6857 23.384C48.6857 20.856 49.1497 18.68 50.0777 16.856C51.0377 15 52.2857 13.576 53.8217 12.584C55.3897 11.592 57.0537 11.096 58.8137 11.096C60.1577 11.096 61.3257 11.336 62.3177 11.816C63.3097 12.296 64.3177 12.952 65.3417 13.784L65.1497 9.8V0.823999H69.1337V35H65.8697L65.5337 32.264H65.3897C64.4937 33.16 63.4377 33.944 62.2217 34.616C61.0057 35.256 59.7097 35.576 58.3337 35.576ZM59.1977 32.264C61.2457 32.264 63.2297 31.192 65.1497 29.048V16.856C64.1577 15.96 63.1977 15.336 62.2697 14.984C61.3737 14.6 60.4457 14.408 59.4857 14.408C58.2377 14.408 57.1017 14.792 56.0777 15.56C55.0857 16.296 54.2857 17.336 53.6777 18.68C53.0697 19.992 52.7657 21.544 52.7657 23.336C52.7657 26.12 53.3257 28.312 54.4457 29.912C55.5657 31.48 57.1497 32.264 59.1977 32.264ZM83.0867 35.576C81.4227 35.576 79.8387 35.272 78.3347 34.664C76.8307 34.024 75.5187 33.256 74.3987 32.36L76.3667 29.72C77.3907 30.52 78.4467 31.192 79.5347 31.736C80.6227 32.248 81.8547 32.504 83.2307 32.504C84.7667 32.504 85.9187 32.152 86.6867 31.448C87.4547 30.712 87.8387 29.848 87.8387 28.856C87.8387 28.056 87.5667 27.384 87.0227 26.84C86.5107 26.296 85.8387 25.848 85.0067 25.496C84.2067 25.112 83.3747 24.76 82.5107 24.44C81.4227 24.024 80.3507 23.56 79.2947 23.048C78.2387 22.504 77.3747 21.816 76.7027 20.984C76.0307 20.12 75.6947 19.032 75.6947 17.72C75.6947 15.832 76.3987 14.264 77.8067 13.016C79.2467 11.736 81.2307 11.096 83.7587 11.096C85.1987 11.096 86.5427 11.352 87.7907 11.864C89.0387 12.376 90.1107 13 91.0067 13.736L89.0867 16.232C88.2867 15.624 87.4547 15.128 86.5907 14.744C85.7267 14.36 84.7827 14.168 83.7587 14.168C82.2867 14.168 81.1987 14.504 80.4947 15.176C79.8227 15.848 79.4867 16.632 79.4867 17.528C79.4867 18.264 79.7267 18.872 80.2067 19.352C80.6867 19.8 81.3107 20.2 82.0787 20.552C82.8467 20.872 83.6627 21.208 84.5267 21.56C85.6467 21.976 86.7507 22.456 87.8387 23C88.9267 23.512 89.8227 24.216 90.5267 25.112C91.2627 25.976 91.6307 27.144 91.6307 28.616C91.6307 29.864 91.2947 31.016 90.6227 32.072C89.9827 33.128 89.0227 33.976 87.7427 34.616C86.4947 35.256 84.9427 35.576 83.0867 35.576ZM97.1001 35V11.672H101.036V35H97.1001ZM99.1161 6.872C98.3481 6.872 97.7081 6.648 97.1961 6.2C96.7161 5.72 96.4761 5.08 96.4761 4.28C96.4761 3.512 96.7161 2.888 97.1961 2.408C97.7081 1.928 98.3481 1.688 99.1161 1.688C99.8841 1.688 100.508 1.928 100.988 2.408C101.5 2.888 101.756 3.512 101.756 4.28C101.756 5.08 101.5 5.72 100.988 6.2C100.508 6.648 99.8841 6.872 99.1161 6.872ZM108.913 35V11.672H112.177L112.513 15.032H112.657C113.681 13.912 114.801 12.984 116.017 12.248C117.233 11.48 118.529 11.096 119.905 11.096C121.697 11.096 123.089 11.496 124.081 12.296C125.105 13.064 125.857 14.152 126.337 15.56C127.553 14.248 128.785 13.176 130.033 12.344C131.281 11.512 132.609 11.096 134.017 11.096C136.417 11.096 138.193 11.88 139.345 13.448C140.529 14.984 141.121 17.24 141.121 20.216V35H137.185V20.744C137.185 18.568 136.833 16.984 136.129 15.992C135.425 15 134.337 14.504 132.865 14.504C131.137 14.504 129.185 15.704 127.009 18.104V35H123.073V20.744C123.073 18.568 122.721 16.984 122.017 15.992C121.313 15 120.209 14.504 118.705 14.504C116.977 14.504 115.025 15.704 112.849 18.104V35H108.913ZM157.781 35.576C155.893 35.576 154.117 35.096 152.453 34.136C150.821 33.176 149.493 31.784 148.469 29.96C147.477 28.136 146.981 25.944 146.981 23.384C146.981 20.76 147.477 18.536 148.469 16.712C149.493 14.888 150.821 13.496 152.453 12.536C154.117 11.576 155.893 11.096 157.781 11.096C159.701 11.096 161.477 11.576 163.109 12.536C164.741 13.496 166.053 14.888 167.045 16.712C168.069 18.536 168.581 20.76 168.581 23.384C168.581 25.944 168.069 28.136 167.045 29.96C166.053 31.784 164.741 33.176 163.109 34.136C161.477 35.096 159.701 35.576 157.781 35.576ZM157.781 32.312C159.797 32.312 161.413 31.496 162.629 29.864C163.877 28.2 164.501 26.04 164.501 23.384C164.501 20.696 163.877 18.52 162.629 16.856C161.413 15.192 159.797 14.36 157.781 14.36C155.797 14.36 154.181 15.192 152.933 16.856C151.685 18.52 151.061 20.696 151.061 23.384C151.061 26.04 151.685 28.2 152.933 29.864C154.181 31.496 155.797 32.312 157.781 32.312ZM184.181 35.576C182.101 35.576 180.213 35.096 178.517 34.136C176.821 33.144 175.477 31.736 174.485 29.912C173.493 28.088 172.997 25.912 172.997 23.384C172.997 20.824 173.493 18.632 174.485 16.808C175.509 14.984 176.821 13.576 178.421 12.584C180.021 11.592 181.701 11.096 183.461 11.096C186.437 11.096 188.725 12.088 190.325 14.072C191.957 16.056 192.773 18.712 192.773 22.04C192.773 22.456 192.757 22.872 192.725 23.288C192.725 23.672 192.693 24.008 192.629 24.296H176.885C177.045 26.76 177.813 28.728 179.189 30.2C180.597 31.672 182.421 32.408 184.661 32.408C185.781 32.408 186.805 32.248 187.733 31.928C188.693 31.576 189.605 31.128 190.469 30.584L191.861 33.176C190.869 33.816 189.733 34.376 188.453 34.856C187.205 35.336 185.781 35.576 184.181 35.576ZM176.837 21.464H189.317C189.317 19.096 188.805 17.304 187.781 16.088C186.789 14.84 185.381 14.216 183.557 14.216C181.925 14.216 180.453 14.856 179.141 16.136C177.861 17.384 177.093 19.16 176.837 21.464ZM204.634 35.576C202.97 35.576 201.386 35.272 199.882 34.664C198.378 34.024 197.066 33.256 195.946 32.36L197.914 29.72C198.938 30.52 199.994 31.192 201.082 31.736C202.17 32.248 203.402 32.504 204.778 32.504C206.314 32.504 207.466 32.152 208.234 31.448C209.002 30.712 209.386 29.848 209.386 28.856C209.386 28.056 209.114 27.384 208.57 26.84C208.058 26.296 207.386 25.848 206.554 25.496C205.754 25.112 204.922 24.76 204.058 24.44C202.97 24.024 201.898 23.56 200.842 23.048C199.786 22.504 198.922 21.816 198.25 20.984C197.578 20.12 197.242 19.032 197.242 17.72C197.242 15.832 197.946 14.264 199.354 13.016C200.794 11.736 202.778 11.096 205.306 11.096C206.746 11.096 208.09 11.352 209.338 11.864C210.586 12.376 211.658 13 212.554 13.736L210.634 16.232C209.834 15.624 209.002 15.128 208.138 14.744C207.274 14.36 206.33 14.168 205.306 14.168C203.834 14.168 202.746 14.504 202.042 15.176C201.37 15.848 201.034 16.632 201.034 17.528C201.034 18.264 201.274 18.872 201.754 19.352C202.234 19.8 202.858 20.2 203.626 20.552C204.394 20.872 205.21 21.208 206.074 21.56C207.194 21.976 208.298 22.456 209.386 23C210.474 23.512 211.37 24.216 212.074 25.112C212.81 25.976 213.178 27.144 213.178 28.616C213.178 29.864 212.842 31.016 212.17 32.072C211.53 33.128 210.57 33.976 209.29 34.616C208.042 35.256 206.49 35.576 204.634 35.576ZM224.8 42.68L237.616 0.919998H240.496L227.68 42.68H224.8ZM242.734 28.712V25.304L252.862 21.56L259.294 19.16V18.968L252.862 16.568L242.734 12.824V9.416L263.326 17.48V20.648L242.734 28.712Z" fill="#303030"/>
</svg>
